PathFileType	4	(X/Y/Z)	C:/Users/opensim2020/Desktop/walking_exp_matlab/subject01_walking11_straight_04.trc																																																																																																																																		
DataRate	CameraRate	NumFrames	NumMarkers	Units	OrigDataRate	OrigDataStartFrame	OrigNumFrames																																																																																																																														
100	100	8	44	mm	100	4113	278																																																																																																																														
Frame#	Time	LFHD			RFHD			LBHD			RBHD			C7			T10			CLAV			STRN			RBAK			LSHO			LUPA			LELB			LFRM			LWRA			LWRB			LFIN			RSHO			RUPA			RELB			RFRM			RWRA			RWRB			RFIN			LASI			RASI			LPSI			RPSI			LTHI			LKNE			LTIB			LANK			LHEE			LTOE			RTHI			RKNE			RTIB			RANK			RHEE			RTOE			*39			*40			*41			*42			*43		
		X1	Y1	Z1	X2	Y2	Z2	X3	Y3	Z3	X4	Y4	Z4	X5	Y5	Z5	X6	Y6	Z6	X7	Y7	Z7	X8	Y8	Z8	X9	Y9	Z9	X10	Y10	Z10	X11	Y11	Z11	X12	Y12	Z12	X13	Y13	Z13	X14	Y14	Z14	X15	Y15	Z15	X16	Y16	Z16	X17	Y17	Z17	X18	Y18	Z18	X19	Y19	Z19	X20	Y20	Z20	X21	Y21	Z21	X22	Y22	Z22	X23	Y23	Z23	X24	Y24	Z24	X25	Y25	Z25	X26	Y26	Z26	X27	Y27	Z27	X28	Y28	Z28	X29	Y29	Z29	X30	Y30	Z30	X31	Y31	Z31	X32	Y32	Z32	X33	Y33	Z33	X34	Y34	Z34	X35	Y35	Z35	X36	Y36	Z36	X37	Y37	Z37	X38	Y38	Z38	X39	Y39	Z39	X40	Y40	Z40	X41	Y41	Z41	X42	Y42	Z42	X43	Y43	Z43	X44	Y44	Z44
																																																																																																																																					
244	2.43	650.81964	1648.07935	921.45782	706.55042	1649.98816	1020.80353	541.35504	1618.33105	976.30695	598.00494	1620.42932	1082.19421	495.89691	1419.38513	997.13049	455.03867	1125.61768	1009.04846	638.96466	1349.04102	998.31824	680.45068	1193.84998	992.72998	435.49844	1222.82312	1070.39087	580.85468	1383.66968	836.80334	571.29535	1200.43665	749.52979	583.78821	1047.98975	746.8833	653.86359	957.98383	719.93506	768.15778	878.00555	732.40186	717.383	853.7218	712.68823	785.99872	805.54291	697.93347	566.8598	1378.36145	1146.8783	490.12692	1183.45239	1243.97229	483.65915	1059.8446	1248.80017	498.02023	942.37933	1285.41602	570.57727	818.4856	1279.20728	522.64587	824.55695	1312.94983	551.98175	741.79718	1314.62988	618.07184	916.13623	895.83154	634.64661	919.46375	1113.05945	436.27567	930.97345	965.9762	448.93637	929.73132	1110.38818	533.88428	587.82806	856.9035	497.47189	455.71786	876.93707	405.56271	287.91977	874.86621	331.54062	81.71958	938.23334	282.40128	60.58117	992.59454	472.50266	32.06327	934.03308	657.40936	595.51953	1190.23572	722.09271	454.69031	1160.68665	738.23846	283.34705	1179.33203	802.40179	81.89289	1144.53149	772.53674	27.13774	1095.78296	948.0213	91.04554	1138.50513	691.85858	1685.33777	1002.97168	-1972.83459	1024.63647	3102.84692	-2013.07886	1022.27454	3138.38745	NaN	NaN	NaN	NaN	NaN	NaN
245	2.44	657.9834	1647.33301	922.79706	714.0166	1649.19556	1021.98126	548.74719	1617.55396	977.91486	605.66626	1619.64526	1083.67358	503.34784	1418.45435	998.52576	462.95578	1124.62439	1010.32507	646.45935	1348.34546	999.69073	688.22827	1193.17346	993.8493	443.24341	1221.66345	1071.58826	588.31171	1383.10327	838.16785	578.61792	1199.83179	750.83002	590.94281	1047.63318	748.06134	660.97583	957.31628	720.97076	775.16412	877.10541	733.34772	724.25403	852.95349	713.64502	792.75989	804.59918	698.83624	574.30078	1377.23816	1148.22449	497.77805	1182.21729	1244.9541	491.64511	1058.52039	1249.85852	505.7363	941.21716	1286.49963	578.19635	817.2132	1280.34424	530.22614	823.38385	1314.09802	559.47119	740.46155	1315.69299	625.80499	915.35187	896.29382	643.39972	918.6037	1113.50366	444.32361	930.2149	967.38824	457.59039	928.78906	1111.66248	539.87952	587.39124	857.33282	502.57428	455.42856	877.19812	408.70303	288.66888	874.99335	332.23196	83.20621	937.96643	282.89093	62.53326	992.38031	472.61945	32.05504	933.95087	667.49615	594.91327	1189.72449	731.22827	453.88837	1160.53528	745.59644	281.94424	1179.23669	807.26563	79.98724	1144.34521	777.14117	25.43904	1095.0896	953.13812	87.68353	1138.53918	699.25806	1684.50488	1004.18121	-1973.18274	1024.11536	3102.19482	-2013.09375	1022.27869	3138.35254	NaN	NaN	NaN	NaN	NaN	NaN
246	2.45	665.16931	1646.57385	924.26672	721.50909	1648.422	1023.2359	556.0412	1616.81628	979.72711	613.30457	1618.79553	1085.23694	511.06659	1417.36145	999.50488	471.05905	1123.58313	1011.65228	654.1015	1347.61987	1001.12982	696.12292	1192.57263	995.02386	451.12885	1220.46326	1072.92822	595.6994	1382.46814	839.68939	585.91705	1199.2876	752.18457	598.25055	1046.97974	749.22845	668.03198	956.63336	722.08484	781.95703	876.15338	734.32501	731.08374	852.07983	714.65417	799.48804	803.66602	699.7818	581.84186	1376.30249	1149.84729	505.46259	1180.93896	1246.13855	499.51663	1057.30957	1251.04041	513.60376	939.98749	1287.68323	585.93573	815.99005	1281.51599	538.06396	822.19666	1315.36731	567.1886	739.12396	1316.77271	633.64471	914.57275	896.8219	652.36328	917.78021	1113.94629	452.50949	929.47156	968.86609	465.97916	927.88043	1113.18054	546.13837	586.9024	857.86414	507.85309	455.14697	877.47913	411.97971	289.54944	875.18274	332.978	84.76703	937.76587	283.55334	64.7171	992.23102	472.69434	32.03713	933.88513	677.60046	594.66327	1189.33972	740.28656	453.03571	1160.44128	752.37775	280.40656	1178.97278	811.17078	77.68435	1143.68433	780.21198	24.25575	1094.6803	957.04681	83.79339	1138.29285	706.69141	1683.71411	1005.50092	-1972.73694	1024.6781	3102.98218	-2013.18408	1022.41467	3138.37646	NaN	NaN	NaN	NaN	NaN	NaN
247	2.46	672.16266	1645.89758	925.7428	728.96558	1647.68079	1024.60107	563.37439	1616.01807	981.6084	621.0033	1618.02173	1086.91687	518.77338	1416.30139	1001.28436	479.30261	1122.49744	1013.01758	661.77075	1346.93457	1002.6709	704.13177	1191.94995	996.29797	459.19687	1219.22998	1074.29761	603.24213	1381.86719	841.31665	593.21631	1198.76294	753.67053	605.5274	1046.38928	750.59406	674.94812	955.96552	723.21912	788.66779	875.11847	735.3335	737.68042	851.19397	715.65253	805.91907	802.56323	700.6792	589.40051	1375.30847	1151.50366	513.23187	1179.70081	1247.42261	507.34467	1056.22412	1252.40796	521.66608	938.86859	1289.15845	593.89386	814.74432	1282.76465	545.98999	820.95502	1316.48755	575.00647	737.89343	1318.01782	641.9176	913.82288	897.35718	661.46887	916.90521	1114.42102	461.01129	928.68732	970.38092	474.83215	927.17963	1115.05664	552.59479	586.388	858.5094	513.33276	454.78955	877.94049	415.44995	290.39575	875.42145	333.86765	86.38593	937.72412	284.0827	66.99052	991.95215	472.75671	31.96394	933.9043	687.81085	594.08826	1188.58301	749.2052	452.07455	1160.29211	758.70734	278.58804	1178.70313	814.51276	75.49597	1142.96033	781.60516	23.35381	1093.5603	960.15039	79.18442	1137.64307	714.17346	1683.07288	1006.99371	-1972.84631	1023.8847	3102.79468	-2013.05823	1022.23639	3138.68726	NaN	NaN	NaN	NaN	NaN	NaN
248	2.47	679.34692	1645.1676	927.3432	736.45514	1646.98071	1026.02283	570.74561	1615.24329	983.61304	628.7309	1617.18176	1088.62927	526.37555	1415.34033	1002.78912	487.69336	1121.3811	1014.47186	669.54315	1346.26257	1004.33582	712.33276	1191.40613	997.62	467.38065	1217.9386	1075.79065	610.65411	1381.2334	843.15277	600.58948	1198.27258	755.27258	612.68616	1045.83667	751.97461	681.77789	955.27374	724.43994	795.23981	873.9494	736.3736	744.13318	850.29492	716.61298	812.21814	801.42047	701.6413	597.12549	1374.32825	1153.27954	521.06891	1178.44189	1248.77148	515.40387	1054.96692	1253.68774	529.62384	937.59052	1290.1123	601.9978	813.55304	1284.09778	554.04596	819.70239	1317.77234	583.12512	736.8385	1319.27893	650.29932	913.05548	897.95514	670.79169	916.14618	1114.98291	469.6402	927.95758	971.93469	484.41214	926.22394	1116.42847	559.27856	585.84845	859.24371	519.3028	454.50061	878.34045	419.19379	291.25723	875.62494	334.82809	88.24102	937.41455	284.92206	69.44194	991.68872	472.85217	31.85352	933.97321	697.83618	593.56287	1188.01172	757.95795	450.8765	1160.16772	764.66101	276.75137	1178.18811	816.90637	73.19346	1142.13953	782.51434	22.59285	1092.8103	962.53772	73.80945	1136.60413	721.54382	1682.33142	1008.47046	-1972.93066	1024.64819	3102.44336	-2013.07495	1022.18378	3138.65381	NaN	NaN	NaN	NaN	NaN	NaN
249	2.48	686.51941	1644.57092	929.04803	744.03619	1646.49976	1027.49817	578.08752	1614.53491	985.73529	636.5022	1616.45728	1090.59961	533.92133	1414.45471	1004.76556	496.21735	1120.30017	1015.98132	677.4433	1345.66418	1006.04242	720.54938	1190.97803	999.0083	475.6741	1216.65186	1077.32666	618.33405	1380.82434	844.9043	608.02704	1197.90491	756.94159	619.67139	1045.40283	753.54462	688.59143	954.56122	725.74432	801.67041	872.77423	737.41675	750.4259	849.39911	717.6889	818.2478	800.23004	702.59558	604.99707	1373.37207	1155.11365	528.7998	1177.24597	1250.30591	523.57263	1053.79456	1255.0968	537.91461	936.37262	1291.70679	610.23596	812.31232	1285.46143	562.15802	818.46362	1318.92664	591.3056	735.41382	1320.51074	658.76129	912.27692	898.69489	680.0119	915.43567	1115.4884	478.26471	927.30457	973.53979	493.81451	925.54938	1118.09082	566.27222	585.34448	859.97125	525.37115	454.13928	878.96802	423.11969	292.20847	875.99066	335.93777	90.18977	937.11108	285.7959	72.15636	991.40863	473.16446	31.9873	933.87531	707.34698	592.94366	1187.65161	766.42841	449.75705	1160.37109	770.22003	275.10184	1177.14221	819.95313	72.31052	1141.00769	783.87305	23.4744	1092.27429	965.57251	67.36147	1135.92383	728.98627	1681.73999	1010.03027	-1972.93933	1023.98645	3102.81787	-2013.02258	1022.45752	3138.63452	NaN	NaN	NaN	NaN	NaN	NaN
250	2.49	693.80139	1644.4541	930.78058	751.6424	1646.31616	1028.99719	585.6452	1614.08289	987.79181	644.44214	1616.08557	1092.44897	541.05157	1414.06152	1007.87946	504.79068	1119.48962	1017.57104	685.30701	1345.23584	1007.82379	728.76721	1190.87292	1000.43604	484.01144	1215.60986	1078.93396	625.79956	1380.47412	846.80408	615.53931	1197.6543	758.71429	626.96118	1044.90588	755.09912	695.16956	953.94098	727.08533	807.87689	871.57098	738.44598	756.5451	848.39124	718.77631	824.11591	798.93292	703.62781	612.98492	1372.53479	1157.11243	536.85199	1176.07129	1251.96899	531.78027	1052.54907	1256.51355	546.05139	935.1109	1292.80774	618.66162	811.18921	1286.77515	570.49506	817.15613	1320.11536	599.63605	734.27881	1321.81018	667.49976	911.66168	899.48877	689.04266	915.09631	1116.13049	486.95044	926.80353	975.10724	503.32208	925.05414	1119.79199	573.46509	584.78729	860.883	531.91437	453.78207	879.78101	427.39392	293.26889	876.43744	337.24271	92.39601	936.59222	286.6189	75.173	990.6507	473.2663	32.15776	933.45752	716.17761	593.06671	1187.6217	774.60626	449.17542	1161.04675	776.43304	274.40854	1175.30579	824.38361	72.42406	1140.31201	785.58276	24.4556	1091.59155	969.65063	62.58487	1135.34692	736.67438	1681.63	1011.63898	-1973.16541	1024.11035	3102.23486	-2013.07349	1022.4538	3138.3252	NaN	NaN	NaN	NaN	NaN	NaN
251	2.5	701.26013	1644.67664	932.50916	759.47754	1646.57166	1030.45251	593.35938	1614.14429	990.03381	652.63062	1616.17151	1094.35242	549.22821	1413.84839	1009.31512	513.57294	1119.11316	1018.96265	693.21436	1345.30396	1009.66254	737.01849	1191.12024	1001.9212	492.32455	1214.99268	1080.50049	633.40155	1380.45349	848.65076	622.95575	1197.59167	760.60596	633.96594	1044.86707	756.78577	701.69556	953.36951	728.5238	813.93433	870.33557	739.57733	762.36945	847.54077	719.92181	829.5661	797.68146	704.65845	620.90405	1371.92371	1159.11438	545.276	1175.0011	1253.32312	540.26349	1051.47302	1258.00085	554.52252	933.93628	1294.24573	627.24078	810.10468	1288.10742	578.99866	816.03107	1321.38635	608.2663	733.2948	1323.04956	676.28186	911.15509	900.45782	698.10681	914.91022	1116.88757	495.75101	926.35571	976.54449	512.63904	924.72992	1121.8949	581.07684	584.28754	861.98145	538.98718	453.43307	880.75763	432.17987	294.48343	876.86987	338.57693	94.67845	936.08051	287.73337	78.75677	989.8996	473.42575	32.11709	933.5553	724.44897	593.54761	1187.92688	783.05121	449.79611	1161.24158	783.70618	275.11108	1174.32495	828.07831	72.37235	1140.33496	787.34497	26.06435	1092.2677	972.73254	58.57941	1134.3418	744.11456	1681.73621	1013.28467	-1973.08496	1024.03137	3102.48145	-2013.15381	1022.48956	3138.38257	NaN	NaN	NaN	NaN	NaN	NaN
